<svg width="258" height="56" viewBox="0 0 258 56" fill="none" xmlns="http://www.w3.org/2000/svg">
<path d="M9.024 55.512C7.70133 55.512 6.67733 55.1493 5.952 54.424C5.26933 53.656 4.928 52.6107 4.928 51.288V13.528C4.928 12.1627 5.26933 11.1387 5.952 10.456C6.67733 9.73066 7.70133 9.368 9.024 9.368C10.3467 9.368 11.3493 9.73066 12.032 10.456C12.7573 11.1387 13.12 12.1627 13.12 13.528V29.848H13.248L31.616 11.416C32.2987 10.7333 32.9813 10.2213 33.664 9.88C34.3467 9.53866 35.1147 9.368 35.968 9.368C37.2053 9.368 38.08 9.688 38.592 10.328C39.1467 10.968 39.36 11.7147 39.232 12.568C39.1467 13.4213 38.7413 14.2107 38.016 14.936L19.328 33.432L19.392 29.72L38.912 49.56C39.808 50.4133 40.2773 51.3093 40.32 52.248C40.3627 53.1867 40.064 53.976 39.424 54.616C38.8267 55.2133 37.9307 55.512 36.736 55.512C35.712 55.512 34.88 55.2987 34.24 54.872C33.6427 54.4453 32.9387 53.8267 32.128 53.016L13.248 34.136H13.12V51.288C13.12 52.6107 12.7787 53.656 12.096 54.424C11.4133 55.1493 10.3893 55.512 9.024 55.512ZM51.5865 55.512C50.2638 55.512 49.2398 55.1493 48.5145 54.424C47.8318 53.656 47.4905 52.6107 47.4905 51.288V13.592C47.4905 12.2267 47.8318 11.1813 48.5145 10.456C49.2398 9.73066 50.2638 9.368 51.5865 9.368C52.9092 9.368 53.9118 9.73066 54.5945 10.456C55.3198 11.1813 55.6825 12.2267 55.6825 13.592V51.288C55.6825 52.6107 55.3412 53.656 54.6585 54.424C53.9758 55.1493 52.9518 55.512 51.5865 55.512ZM80.401 55.512C79.0783 55.512 78.0543 55.1493 77.329 54.424C76.6463 53.656 76.305 52.5893 76.305 51.224V31.768L78.033 36.696L62.609 15C62.0543 14.232 61.7983 13.4213 61.841 12.568C61.9263 11.672 62.289 10.9253 62.929 10.328C63.569 9.688 64.465 9.368 65.617 9.368C66.4703 9.368 67.2383 9.58133 67.921 10.008C68.6463 10.4347 69.329 11.096 69.969 11.992L81.425 28.248H79.633L91.153 11.992C91.8357 11.0533 92.497 10.392 93.137 10.008C93.777 9.58133 94.5663 9.368 95.505 9.368C96.6143 9.368 97.4677 9.66666 98.065 10.264C98.705 10.8187 99.025 11.5227 99.025 12.376C99.0677 13.2293 98.769 14.1253 98.129 15.064L82.833 36.696L84.497 31.768V51.224C84.497 54.0827 83.1317 55.512 80.401 55.512Z" fill="#425DB3"/>
<path d="M122.152 55.64C117.8 55.64 113.981 54.68 110.696 52.76C107.453 50.84 104.936 48.152 103.144 44.696C101.352 41.1973 100.456 37.1013 100.456 32.408C100.456 28.8667 100.968 25.688 101.992 22.872C103.016 20.0133 104.467 17.5813 106.344 15.576C108.264 13.528 110.547 11.9707 113.192 10.904C115.88 9.79467 118.867 9.24 122.152 9.24C126.547 9.24 130.365 10.2 133.608 12.12C136.851 13.9973 139.368 16.664 141.16 20.12C142.952 23.576 143.848 27.6507 143.848 32.344C143.848 35.8853 143.336 39.0853 142.312 41.944C141.288 44.8027 139.816 47.256 137.896 49.304C136.019 51.352 133.736 52.9307 131.048 54.04C128.403 55.1067 125.437 55.64 122.152 55.64ZM122.152 48.6C124.925 48.6 127.272 47.96 129.192 46.68C131.155 45.4 132.648 43.544 133.672 41.112C134.739 38.68 135.272 35.7787 135.272 32.408C135.272 27.288 134.12 23.32 131.816 20.504C129.555 17.688 126.333 16.28 122.152 16.28C119.421 16.28 117.075 16.92 115.112 18.2C113.149 19.4373 111.635 21.272 110.568 23.704C109.544 26.0933 109.032 28.9947 109.032 32.408C109.032 37.4853 110.184 41.4533 112.488 44.312C114.792 47.1707 118.013 48.6 122.152 48.6Z" fill="#90AAFF"/>
<path d="M162.8 55.512C161.648 55.512 160.709 55.2347 159.984 54.68C159.301 54.1253 158.747 53.2507 158.32 52.056L144.944 14.232C144.475 12.8667 144.56 11.7147 145.2 10.776C145.883 9.83733 147.013 9.368 148.592 9.368C149.744 9.368 150.64 9.64533 151.28 10.2C151.92 10.712 152.432 11.544 152.816 12.696L164.336 46.872H161.776L173.808 12.76C174.235 11.608 174.768 10.7547 175.408 10.2C176.048 9.64533 176.88 9.368 177.904 9.368C178.928 9.368 179.739 9.64533 180.336 10.2C180.933 10.7547 181.445 11.6293 181.872 12.824L193.52 46.872H191.28L202.992 12.696C203.376 11.5867 203.888 10.7547 204.528 10.2C205.168 9.64533 206.043 9.368 207.152 9.368C208.517 9.368 209.52 9.83733 210.16 10.776C210.8 11.7147 210.885 12.8667 210.416 14.232L196.912 52.12C196.485 53.272 195.931 54.1253 195.248 54.68C194.565 55.2347 193.648 55.512 192.496 55.512C191.344 55.512 190.427 55.2347 189.744 54.68C189.061 54.1253 188.507 53.2507 188.08 52.056L176.944 20.312H178.416L167.152 52.12C166.725 53.272 166.171 54.1253 165.488 54.68C164.848 55.2347 163.952 55.512 162.8 55.512Z" fill="#425DB3"/>
<path d="M233.152 55.64C228.8 55.64 224.981 54.68 221.696 52.76C218.453 50.84 215.936 48.152 214.144 44.696C212.352 41.1973 211.456 37.1013 211.456 32.408C211.456 28.8667 211.968 25.688 212.992 22.872C214.016 20.0133 215.467 17.5813 217.344 15.576C219.264 13.528 221.547 11.9707 224.192 10.904C226.88 9.79467 229.867 9.24 233.152 9.24C237.547 9.24 241.365 10.2 244.608 12.12C247.851 13.9973 250.368 16.664 252.16 20.12C253.952 23.576 254.848 27.6507 254.848 32.344C254.848 35.8853 254.336 39.0853 253.312 41.944C252.288 44.8027 250.816 47.256 248.896 49.304C247.019 51.352 244.736 52.9307 242.048 54.04C239.403 55.1067 236.437 55.64 233.152 55.64ZM233.152 48.6C235.925 48.6 238.272 47.96 240.192 46.68C242.155 45.4 243.648 43.544 244.672 41.112C245.739 38.68 246.272 35.7787 246.272 32.408C246.272 27.288 245.12 23.32 242.816 20.504C240.555 17.688 237.333 16.28 233.152 16.28C230.421 16.28 228.075 16.92 226.112 18.2C224.149 19.4373 222.635 21.272 221.568 23.704C220.544 26.0933 220.032 28.9947 220.032 32.408C220.032 37.4853 221.184 41.4533 223.488 44.312C225.792 47.1707 229.013 48.6 233.152 48.6Z" fill="#90AAFF"/>
<circle cx="224.5" cy="31.5" r="8.5" fill="#90AAFF"/>
<circle cx="130.5" cy="31.5" r="8.5" fill="#90AAFF"/>
</svg>
